<svg width="108" height="108" viewBox="0 0 108 108" fill="none" xmlns="http://www.w3.org/2000/svg">
<path d="M84.25 43C84.25 32.3575 75.6425 23.75 65 23.75C55.2925 23.75 47.3175 30.9275 45.97 40.25H33.375C31.56 40.25 30.02 41.405 29.47 43L23.75 59.5V81.5C23.75 83.0125 24.9875 84.25 26.5 84.25H29.25C30.7625 84.25 32 83.0125 32 81.5V78.75H65V81.5C65 83.0125 66.2375 84.25 67.75 84.25H70.5C72.0125 84.25 73.25 83.0125 73.25 81.5V60.38C79.74 57.2725 84.25 50.6725 84.25 43ZM33.375 44.375H45.8325C46.1625 49.215 48.28 53.56 51.5525 56.75H29.25L33.375 44.375ZM33.375 70.5C31.0925 70.5 29.25 68.6575 29.25 66.375C29.25 64.0925 31.0925 62.25 33.375 62.25C35.6575 62.25 37.5 64.0925 37.5 66.375C37.5 68.6575 35.6575 70.5 33.375 70.5ZM63.625 70.5C61.3425 70.5 59.5 68.6575 59.5 66.375C59.5 64.0925 61.3425 62.25 63.625 62.25C65.9075 62.25 67.75 64.0925 67.75 66.375C67.75 68.6575 65.9075 70.5 63.625 70.5ZM65 56.75C61.1775 56.75 57.96 55.375 55.2925 52.7075C52.625 50.04 51.25 46.8225 51.25 43C51.25 39.26 52.625 36.015 55.2925 33.375C57.96 30.625 61.1775 29.25 65 29.25C68.74 29.25 71.985 30.625 74.625 33.375C77.375 36.015 78.75 39.26 78.75 43C78.75 46.8225 77.375 50.04 74.625 52.7075C71.985 55.375 68.74 56.75 65 56.75ZM66.375 43.6875L74.24 48.335L72.1775 51.69L62.25 45.75V32H66.375V43.6875Z" fill="#3F4849"/>
</svg>
